@startuml
'https://plantuml.com/class-diagram

title "As a Buyer, I want to get the list of items on direct sale of a given publishing company" CD

'==== basic style ====
skinparam monochrome false
skinparam shadowing false
skinparam defaultFontName Futura
skinparam objectFontSize 20
skinparam backgroundColor CornSilk
skinparam objectBackgroundColor WhiteSmoke
skinparam noteBackgroundColor #FFFFE0
skinparam ArrowFontColor #3B4953
skinparam ActivationBackgroundColor black
skinparam classAttributeIconSize 0

class GetDirectSaleItemsByPublishingCompanyUI{}

package "controller" {
    class GetDirectSaleItemsByPublishingCompanyController {
        +getDirectSaleItemsByPublishingCompanyId(publishingCompanyId: PublishingCompanyId): List<ItemId>
        +findAllKeys() : List<PublishingCompanyId>
    }
}

package "ddd" {
    interface IRepository<ID, T> <<Interface>> {
        +findAll() : Iterable<T>
        +findAllKeys() : List<ID>
        +ofIdentity(id : ID) : Optional <T>
   }
   interface AggregateRoot<ID, T> <<Interface>>

   interface DomainEntity<ID> <<Interface>>{

   }
}

package "domain" {
    package "repository" {
        interface IPublishingCompanyRepo <<Interface>> {
        }
        interface IDirectSaleRepo <<Interface>> {
        }
        interface IItemRepo <<Interface>> {
        }
        interface IEditionRepo <<Interface>> {
        }

    }

    package "valueobject" {
        class PublishingCompanyId <<Value Object>>
        class ItemId <<Value Object>>
        class EditionId <<Value Object>>
    }

    package "directsale" #b0c4d4 {
        class DirectSale <<Root>> <<Entity>> {
            getItemsId() : List<ItemId>
        }
    }

    package "item" #b0c4d4{
        class Item <<Root>> <<Entity>> {
            +getEditionId() : EditionId
        }
    }

    package "edition" #b0c4d4{
        class Edition <<Root>> <<Entity>> {
            +isByPublishingCompanyId(publishingCompanyId : publishingCompanyId) : boolean
        }
    }

}

GetDirectSaleItemsByPublishingCompanyUI "1".>"1" GetDirectSaleItemsByPublishingCompanyController : invokes

GetDirectSaleItemsByPublishingCompanyController "1" ..> "1" IDirectSaleRepo : <<use>>
GetDirectSaleItemsByPublishingCompanyController "1" ..> "1" IItemRepo : <<use>>
GetDirectSaleItemsByPublishingCompanyController "1" ..> "1" IEditionRepo : <<use>>
GetDirectSaleItemsByPublishingCompanyController "1" ..> "1" IPublishingCompanyRepo : <<use>>

IDirectSaleRepo ..|> IRepository
IItemRepo ..|> IRepository
IEditionRepo ..|> IRepository
IPublishingCompanyRepo ..|> IRepository

IDirectSaleRepo "1" --> "*" DirectSale : manages
IItemRepo "1" --> "*" Item : manages
IEditionRepo "1" --> "*" Edition : manages

DirectSale "1" o-- "1..*" ItemId : aggregates
Item "1" --> "1" EditionId : has
Item "1" --> "1" ItemId : has
Edition "1" --> "1" EditionId : has
Edition "1" --> "1" PublishingCompanyId : has

AggregateRoot --|> DomainEntity
DirectSale ..|> AggregateRoot
Item ..|> AggregateRoot
Edition ..|> AggregateRoot

@enduml