@startuml
title US002 - "As an administrator, I want to add a publication type to the official type list, %n() so that new publications can be of this type" %n()CD

skinparam monochrome false
skinparam shadowing false
skinparam defaultFontName Futura
skinparam objectFontSize 20
skinparam backgroundColor CornSilk
skinparam objectBackgroundColor WhiteSmoke
skinparam noteBackgroundColor #FFFFE0
skinparam ArrowFontColor #3B4953
skinparam ActivationBackgroundColor black
skinparam classAttributeIconSize 0


class AddPublicationTypeUI

package "PERSISTENCE" {
            package "MEM" {
                class MemoPublicationTypeRepo {
                  + addPublicationType(publicationTypeName : String) : PublicationType
                }
            }
}

package "CONTROLLER" {
    class AddPublicationTypeController {
      + addPublicationType(publicationTypeName : String) : PublicationType
    }
}

package "DOMAIN" {
    package "PUBLICATIONTYPE" #b0c4d4 {
        class PublicationType <<Root>> <<Entity>> {
        }


        class PublicationTypeFactory <<Factory>>{
          + createPublicationType(publicationTypeName : String) : PublicationType
        }
}

    package "REPOSITORY" {
            interface IPublicationTypeRepo <<Interface>>
    }


     package "VALUE OBJECT" {
             class PublicationTypeId <<Value Object>> #lightpink

     }

}

package "DDD" {
    interface IRepository <ID, T> <<Interface>> {
        save(T) : T
        findAll() : Iterable<T>
        ofIdentity(ID) : Optional <T>
        containsOfIdentity(ID) : boolean
    }
}


' ===== RELATIONSHIPS =====
AddPublicationTypeUI "1" ..> "1" AddPublicationTypeController: invokes
AddPublicationTypeController "1" --> "1" IPublicationTypeRepo: calls
MemoPublicationTypeRepo ..|> IPublicationTypeRepo
IPublicationTypeRepo --|> IRepository
MemoPublicationTypeRepo "1" --> "1" PublicationTypeFactory: <<use>>
PublicationTypeFactory "1" ..> "*" PublicationType: <<create>>
MemoPublicationTypeRepo "1"--> "*" PublicationType: persists
PublicationType "1" --> "1" PublicationTypeId: has

@enduml
