@startuml
'https://plantuml.com/class-diagram

title US028 "As a Buyer, I want to get the list of items on auction of a given publishing company" - CD

'==== basic style ====
skinparam monochrome false
skinparam shadowing false
skinparam defaultFontName Futura
skinparam objectFontSize 20
skinparam backgroundColor CornSilk
skinparam objectBackgroundColor WhiteSmoke
skinparam noteBackgroundColor #FFFFE0
skinparam ArrowFontColor #3B4953
skinparam ActivationBackgroundColor black
skinparam classAttributeIconSize 0

class GetAuctionItemsByPublishingCompanyUI{}

package "controller" {
    class GetAuctionItemsByPublishingCompanyController {
        +getAuctionItemsByPublishingCompanyId(publishingCompanyId: PublishingCompanyId): List<ItemId>
        +findAllKeys() : List<PublishingCompanyId>
    }
}

package "ddd" {
    interface IRepository<ID, T> <<Interface>>
}

package "domain" {
    package "repository" {
        interface IPublishingCompanyRepo <<Interface>> {
            +findAllKeys() : List<PublishingCompanyId>
        }
        interface IAuctionRepo <<Interface>> {
            +findAll() : Iterable<Auction>
        }
        interface IItemRepo <<Interface>> {
            +ofIdentity(id : ItemId) : Optional<Item>
        }
        interface IEditionRepo <<Interface>> {
            +ofIdentity(id : EditionId) : Optional<Edition>
        }

    }

    package "valueobject" {
        class PublishingCompanyId <<Value Object>>
        class ItemId <<Value Object>>
        class EditionId <<Value Object>>
    }

    package "auction" #b0c4d4 {
        class Auction <<Root>> <<Entity>> {
            getItemsId() : List<ItemId>
        }
    }

    package "item" {
        class Item <<Root>> <<Entity>> {
            +getEditionId() : EditionId
        }
    }

    package "edition" {
        class Edition <<Root>> <<Entity>> {
            +isByPublishingCompanyId(publishingCompanyId : publishingCompanyId) : boolean
        }
    }

}

GetAuctionItemsByPublishingCompanyUI "1".>"1" GetAuctionItemsByPublishingCompanyController : invokes

GetAuctionItemsByPublishingCompanyController "1" ..> "1" IAuctionRepo : <<use>>
GetAuctionItemsByPublishingCompanyController "1" ..> "1" IItemRepo : <<use>>
GetAuctionItemsByPublishingCompanyController "1" ..> "1" IEditionRepo : <<use>>
GetAuctionItemsByPublishingCompanyController "1" ..> "1" IPublishingCompanyRepo : <<use>>

IAuctionRepo --|> IRepository
IItemRepo --|> IRepository
IEditionRepo --|> IRepository
IPublishingCompanyRepo --|> IRepository

IAuctionRepo "1" --> "*" Auction : manages
IItemRepo "1" --> "*" Item : manages
IEditionRepo "1" --> "*" Edition : manages

Auction "1" o-- "1..*" ItemId : aggregates
Item "1" --> "1" EditionId : has
Item "1" --> "1" ItemId : has
Edition "1" --> "1" EditionId : has
Edition "1" --> "1" PublishingCompanyId : has

@enduml
